<?xml version="1.0" encoding="UTF-8" standalone="no"?>
<!DOCTYPE svg PUBLIC "-//W3C//DTD SVG 1.1//EN" "http://www.w3.org/Graphics/SVG/1.1/DTD/svg11.dtd">
<svg width="100%" height="100%" viewBox="0 0 399 107" version="1.1" xmlns="http://www.w3.org/2000/svg" xmlns:xlink="http://www.w3.org/1999/xlink" xml:space="preserve" xmlns:serif="http://www.serif.com/" style="fill-rule:evenodd;clip-rule:evenodd;stroke-linejoin:round;stroke-miterlimit:2;">
    <g id="Artboard2" transform="matrix(0.972178,0,0,1,0,0)">
        <rect x="0" y="0" width="409.903" height="106.285" style="fill:none;"/>
        <clipPath id="_clip1">
            <rect x="0" y="0" width="409.903" height="106.285"/>
        </clipPath>
        <g clip-path="url(#_clip1)">
            <g transform="matrix(1.09003,0,0,0.248962,-1383.95,-8.0343)">
                <g transform="matrix(0.943663,0,0,4.01668,191.435,-8168.68)">
                    <path d="M1142.58,2047.25L1183.84,2047.25C1190.31,2047.25 1195.86,2048.31 1200.48,2050.44C1205.11,2052.56 1208.64,2055.62 1211.07,2059.61C1213.51,2063.6 1214.72,2068.36 1214.72,2073.88C1214.72,2079.34 1213.52,2083.91 1211.11,2087.59C1208.7,2091.27 1205.28,2093.88 1200.84,2095.42L1200.84,2095.91C1206.62,2097.24 1211.04,2099.82 1214.1,2103.67C1217.16,2107.52 1218.69,2112.44 1218.69,2118.44C1218.69,2124.22 1217.45,2129.22 1214.97,2133.44C1212.49,2137.65 1208.89,2140.87 1204.18,2143.09C1199.48,2145.31 1193.79,2146.42 1187.13,2146.42L1142.58,2146.42L1142.58,2047.25ZM1185.36,2131.37C1188.81,2131.37 1191.74,2130.83 1194.14,2129.77C1196.55,2128.71 1198.38,2127.12 1199.62,2125.01C1200.86,2122.89 1201.48,2120.3 1201.48,2117.23C1201.48,2112.75 1200.06,2109.34 1197.23,2107.02C1194.39,2104.69 1190.23,2103.53 1184.72,2103.53L1159.41,2103.53L1159.41,2131.37L1185.36,2131.37ZM1184.02,2089.18C1186.78,2089.18 1189.2,2088.67 1191.28,2087.64C1193.35,2086.62 1194.97,2085.07 1196.13,2083.02C1197.29,2080.97 1197.86,2078.46 1197.86,2075.51C1197.86,2071.29 1196.52,2068.03 1193.83,2065.74C1191.13,2063.45 1187.33,2062.3 1182.42,2062.3L1159.41,2062.3L1159.41,2089.18L1184.02,2089.18Z" style="fill:rgb(35,90,255);fill-rule:nonzero;"/>
                </g>
                <g transform="matrix(0.943663,0,0,4.01668,190.491,-8168.68)">
                    <path d="M1244.36,2061.7C1242.57,2061.7 1240.96,2061.32 1239.55,2060.57C1238.13,2059.81 1237.02,2058.72 1236.22,2057.31C1235.42,2055.89 1235.01,2054.29 1235.01,2052.49L1235.01,2050.93C1235.01,2048.38 1235.84,2046.21 1237.49,2044.42C1239.15,2042.62 1241.44,2041.73 1244.36,2041.73L1246.21,2041.73C1248.94,2041.73 1251.16,2042.58 1252.86,2044.28C1254.56,2045.98 1255.41,2048.19 1255.41,2050.93L1255.41,2052.49C1255.41,2055.04 1254.61,2057.21 1253.01,2059.01C1251.4,2060.8 1249.13,2061.7 1246.21,2061.7L1244.36,2061.7Z" style="fill:rgb(35,90,255);fill-rule:nonzero;"/>
                </g>
                <g transform="matrix(0.943663,0,0,4.01668,190.491,-8168.68)">
                    <path d="M1237.71,2090.18L1225.95,2090.18L1225.95,2076.01C1227.65,2075.72 1230.01,2075.44 1233.03,2075.16C1236.05,2074.88 1238.65,2074.73 1240.82,2074.73C1245.92,2074.73 1249.44,2075.72 1251.38,2077.71C1253.31,2079.69 1254.28,2082.9 1254.28,2087.34L1254.28,2146.42L1237.71,2146.42L1237.71,2090.18Z" style="fill:rgb(35,90,255);fill-rule:nonzero;"/>
                </g>
                <g transform="matrix(0.943663,0,0,4.01668,189.548,-8168.68)">
                    <path d="M1306.73,2148.01C1300.66,2148.01 1295.61,2146.99 1291.58,2144.97C1287.54,2142.93 1284.49,2139.95 1282.42,2136C1280.35,2132.06 1279.32,2127.15 1279.32,2121.27L1279.32,2090.18L1266.22,2090.18L1266.22,2076.89C1267.92,2076.59 1270.08,2076.32 1272.71,2076.08C1275.35,2075.84 1277.55,2075.71 1279.32,2075.69L1280.84,2057.88L1295.79,2057.88L1295.79,2075.58L1316.16,2075.58L1316.16,2090.18L1295.79,2090.18L1295.79,2118.86C1295.79,2124.18 1297.02,2127.79 1299.28,2129.95C1301.22,2131.8 1302.6,2133.07 1307.09,2133.07C1309.66,2133.07 1312.76,2132.69 1316.37,2131.93L1316.37,2146.17C1314.1,2146.81 1310.88,2148.01 1306.73,2148.01Z" style="fill:rgb(35,90,255);fill-rule:nonzero;"/>
                </g>
                <g transform="matrix(0.943663,0,0,4.01668,183.886,-8168.68)">
                    <path d="M1366.33,2148C1358.74,2148 1353.19,2146.62 1347.69,2143.85C1342.2,2141.09 1338,2137.14 1335.09,2132.02C1332.18,2126.89 1330.72,2120.8 1330.72,2113.75L1330.72,2108.62C1330.72,2097.87 1333.9,2089.41 1340.26,2083.25C1346.61,2077.08 1354.29,2074 1365.28,2074C1372.35,2074 1377.47,2075.3 1382.64,2077.91C1387.82,2080.51 1391.78,2084.24 1394.53,2089.09C1397.28,2093.93 1398.65,2099.62 1398.65,2106.15C1398.65,2107.68 1398.6,2109.28 1398.51,2110.93C1398.42,2112.58 1398.28,2114.21 1398.1,2115.82L1347.21,2115.82L1347.21,2116.58C1347.21,2119.96 1347.98,2122.98 1349.52,2125.64C1351.06,2128.29 1353.33,2130.35 1356.33,2131.82C1359.33,2133.3 1361.97,2134.03 1366.25,2134.03C1373.88,2134.03 1377.2,2131.03 1377.2,2131.03L1393.86,2135.85C1393.86,2135.85 1391.88,2140.8 1382.06,2144.89C1377.06,2146.97 1372.49,2148 1366.33,2148ZM1382.36,2104.26L1382.36,2103.49C1382.36,2098.52 1380.75,2094.65 1377.52,2091.88C1374.3,2089.1 1370.83,2087.71 1365.12,2087.71C1359.34,2087.71 1355.74,2089.12 1352.33,2091.93C1348.92,2094.75 1347.21,2098.6 1347.21,2103.49L1347.21,2104.26L1382.36,2104.26Z" style="fill:rgb(35,90,255);fill-rule:nonzero;"/>
                </g>
                <g transform="matrix(0.943663,0,0,4.01668,175.393,-8168.68)">
                    <path d="M1417.83,2075.58L1433.95,2075.58C1433.95,2082.26 1433.83,2087.52 1433.59,2091.34L1434.09,2091.34C1435.55,2086.27 1438.25,2082.11 1442.18,2078.86C1446.11,2075.61 1450.96,2073.99 1455.44,2073.99C1457.81,2073.99 1460.33,2074.26 1462.39,2074.8L1462.39,2090.78C1458.59,2089.97 1456.44,2089.93 1453.14,2089.93C1450.02,2089.93 1446.18,2090.61 1443.37,2091.98C1440.56,2093.35 1438.37,2095.39 1436.82,2098.11C1435.26,2100.82 1434.48,2104.06 1434.48,2107.81L1434.48,2146.42L1417.83,2146.42L1417.83,2075.58Z" style="fill:rgb(35,90,255);fill-rule:nonzero;"/>
                </g>
                <g transform="matrix(0.943663,0,0,4.01668,164.069,-8168.68)">
                    <path d="M1493.84,2148.01C1486.96,2148.01 1481.36,2146.09 1477.01,2142.26C1472.67,2138.42 1470.5,2133.34 1470.5,2127.01C1470.5,2120.61 1471.17,2113.85 1476.87,2109.08C1481.12,2105.53 1487.06,2103.75 1494.68,2103.75L1517.78,2103.75L1517.78,2101.05C1517.78,2096.96 1516.48,2093.78 1513.9,2091.49C1511.31,2089.2 1507.75,2088.05 1503.22,2088.05C1492.3,2088.05 1487.04,2090.9 1487.04,2090.9L1487.04,2077.09C1487.04,2077.09 1492.67,2074.01 1503.22,2073.99C1509.55,2073.98 1515.05,2075.02 1519.73,2077.09C1524.4,2079.16 1528.02,2082.16 1530.58,2086.1C1533.14,2090.05 1534.42,2094.8 1534.42,2100.38L1534.42,2132.36L1544.52,2132.36L1544.52,2146.42C1541.26,2147.48 1537.65,2148.01 1533.68,2148.01C1529,2148.01 1525.5,2146.97 1523.18,2144.88C1520.85,2142.79 1519.69,2139.75 1519.69,2135.76C1519.69,2134.51 1519.71,2133.59 1519.76,2133.01C1519.81,2132.43 1519.83,2131.55 1519.83,2130.37L1519.34,2130.37C1517.61,2135.97 1514.5,2140.31 1510,2143.39C1505.51,2146.47 1500.12,2148.01 1493.84,2148.01ZM1498.48,2134.09C1501.9,2134.09 1505.09,2133.41 1508.06,2132.05C1511.02,2130.7 1513.38,2128.78 1515.14,2126.32C1516.9,2123.85 1517.78,2118.03 1517.78,2114.87L1496.03,2114.87C1493.27,2114.87 1490.59,2115.12 1488.46,2116.89C1485.77,2119.13 1486.04,2123.07 1486.04,2125.38C1486.04,2128 1487.05,2130.11 1489.06,2131.7C1491.88,2133.93 1494.89,2134.09 1498.48,2134.09Z" style="fill:rgb(35,90,255);fill-rule:nonzero;"/>
                </g>
                <g transform="matrix(0.943663,0,0,4.01668,160.294,-8168.68)">
                    <rect x="1556.84" y="2043" width="16.646" height="103.417" style="fill:rgb(35,90,255);fill-rule:nonzero;"/>
                </g>
            </g>
        </g>
    </g>
</svg>
