<?xml version="1.0" encoding="UTF-8" standalone="no"?>
<!DOCTYPE svg PUBLIC "-//W3C//DTD SVG 1.1//EN" "http://www.w3.org/Graphics/SVG/1.1/DTD/svg11.dtd">
<svg width="100%" height="100%" viewBox="0 0 60 60" version="1.1" xmlns="http://www.w3.org/2000/svg" xmlns:xlink="http://www.w3.org/1999/xlink" xml:space="preserve" xmlns:serif="http://www.serif.com/" style="fill-rule:evenodd;clip-rule:evenodd;stroke-linecap:round;stroke-linejoin:round;stroke-miterlimit:1.5;">
    <g transform="matrix(0.999997,0,0,0.999997,-0.121484,-0.266405)">
        <g>
            <path vector-effect="non-scaling-stroke" d="M56.901,16.934L56.901,43.598C56.901,50.957 50.927,56.93 43.569,56.93L16.674,56.93C9.316,56.93 3.342,50.957 3.342,43.598L3.342,16.934C3.342,9.576 9.316,3.602 16.674,3.602L43.569,3.602C50.927,3.602 56.901,9.576 56.901,16.934Z" style="fill:none;stroke:currentColor;stroke-width:1.2px;"/>
        </g>
    </g>
    <g id="Layer1">
        <g transform="matrix(1,0,0,1,-0.550575,0)">
            <path vector-effect="non-scaling-stroke" d="M24.084,17.065C15.388,17.065 24.12,28.245 15.603,30" style="fill:none;stroke:currentColor;stroke-width:1.2px;"/>
            <g transform="matrix(1,0,0,-1,0,59.9995)">
                <path vector-effect="non-scaling-stroke" d="M24.084,17.065C15.388,17.065 24.12,28.245 15.603,30" style="fill:none;stroke:currentColor;stroke-width:1.2px;"/>
            </g>
        </g>
        <g id="Layer11" serif:id="Layer1" transform="matrix(-1,1.22465e-16,-1.22465e-16,-1,60.5506,59.9995)">
            <g>
                <path vector-effect="non-scaling-stroke" d="M24.084,17.065C15.388,17.065 24.12,28.245 15.603,30" style="fill:none;stroke:currentColor;stroke-width:1.2px;"/>
                <g transform="matrix(1,0,0,-1,0,59.9995)">
                    <path vector-effect="non-scaling-stroke" d="M24.084,17.065C15.388,17.065 24.12,28.245 15.603,30" style="fill:none;stroke:currentColor;stroke-width:1.2px;"/>
                </g>
            </g>
        </g>
    </g>
</svg>
