<?xml version="1.0" encoding="UTF-8" standalone="no"?>
<!DOCTYPE svg PUBLIC "-//W3C//DTD SVG 1.1//EN" "http://www.w3.org/Graphics/SVG/1.1/DTD/svg11.dtd">
<svg width="100%" height="100%" viewBox="0 0 60 60" version="1.1" xmlns="http://www.w3.org/2000/svg" xmlns:xlink="http://www.w3.org/1999/xlink" xml:space="preserve" xmlns:serif="http://www.serif.com/" style="fill-rule:evenodd;clip-rule:evenodd;stroke-miterlimit:1.4296;">
    <g id="Layer1">
        <g id="Layer11" serif:id="Layer1">
        </g>
        <g transform="matrix(0.222744,0,0,0.222744,46.6852,30.1011)">
            <g>
                <g>
                    <g transform="matrix(1.19887,-5.42064e-32,5.42064e-32,1.19887,-9.60552,-9.68507)">
                        <path vector-effect="non-scaling-stroke" d="M-32.4,7.7L48.3,7.7" style="fill:none;fill-rule:nonzero;stroke:currentColor;stroke-width:1.2px;"/>
                    </g>
                    <g transform="matrix(1.19887,-5.42064e-32,5.42064e-32,1.19887,-9.60552,-9.68507)">
                        <path vector-effect="non-scaling-stroke" d="M7.3,48.7L48.3,7.7L7.3,-33.3" style="fill:none;fill-rule:nonzero;stroke:currentColor;stroke-width:1.2px;"/>
                    </g>
                    <g transform="matrix(-1.19887,1.46819e-16,-1.46819e-16,-1.19887,-140.209,8.77756)">
                        <path vector-effect="non-scaling-stroke" d="M-32.4,7.7L48.3,7.7" style="fill:none;fill-rule:nonzero;stroke:currentColor;stroke-width:1.2px;"/>
                    </g>
                    <g transform="matrix(-1.19887,1.46819e-16,-1.46819e-16,-1.19887,-140.209,8.77756)">
                        <path vector-effect="non-scaling-stroke" d="M7.3,48.7L48.3,7.7L7.3,-33.3" style="fill:none;fill-rule:nonzero;stroke:currentColor;stroke-width:1.2px;"/>
                    </g>
                </g>
            </g>
        </g>
    </g>
</svg>
