<?xml version="1.0" encoding="UTF-8" standalone="no"?>
<!DOCTYPE svg PUBLIC "-//W3C//DTD SVG 1.1//EN" "http://www.w3.org/Graphics/SVG/1.1/DTD/svg11.dtd">
<svg width="100%" height="100%" viewBox="0 0 60 60" version="1.1" xmlns="http://www.w3.org/2000/svg" xmlns:xlink="http://www.w3.org/1999/xlink" xml:space="preserve" xmlns:serif="http://www.serif.com/" style="fill-rule:evenodd;clip-rule:evenodd;stroke-miterlimit:10;">
    <g transform="matrix(1,0,0,1,-1.80272,-0.329211)">
        <g transform="matrix(0.612532,0,0,0.555108,1.32924,5.112)">
            <path vector-effect="non-scaling-stroke" d="M70.6,94.2L28.9,94.2C21.8,94.2 16,88.4 16,81.3L16,49.5C16,42.4 21.8,36.6 28.9,36.6L70.6,36.6C77.7,36.6 83.5,42.4 83.5,49.5L83.5,81.3C83.5,88.4 77.7,94.2 70.6,94.2Z" style="fill:none;fill-rule:nonzero;stroke:currentColor;stroke-width:1.2px;"/>
        </g>
        <g transform="matrix(0.612532,0,0,0.612532,1.32924,-0.297435)">
            <path vector-effect="non-scaling-stroke" d="M68.5,42L68.5,24.5C68.5,14.2 60.1,5.8 49.8,5.8C39.4,5.8 31,14.2 31,24.5L31,42" style="fill:none;fill-rule:nonzero;stroke:currentColor;stroke-width:1.2px;"/>
        </g>
    </g>
</svg>
