<svg width="300" height="300" viewBox="0 0 60 60" version="1.1" xmlns="http://www.w3.org/2000/svg">
    <g fill="none" stroke="black" stroke-width="1.2" stroke-linecap="round">
        <path vector-effect="non-scaling-stroke" d="M17.767,50.157C25.284,54.719 34.716,54.719 42.233,50.157" style="fill:none;stroke:black;stroke-width:1.2px;" />
        <path vector-effect="non-scaling-stroke" d="M42.233,9.843C34.716,5.281 25.284,5.281 17.767,9.843" style="fill:none;stroke:black;stroke-width:1.2px;" />
        <path vector-effect="non-scaling-stroke" d="M9.843,17.767C5.281,25.284 5.281,34.716 9.843,42.233" style="fill:none;stroke:black;stroke-width:1.2px;" />
        <path vector-effect="non-scaling-stroke" d="M50.157,42.233C54.719,34.716 54.719,25.284 50.157,17.767" style="fill:none;stroke:black;stroke-width:1.2px;" />

        <path vector-effect="non-scaling-stroke" d="M21.436,44.112C26.699,47.306 33.301,47.306 38.564,44.112" style="fill:none;stroke:black;stroke-width:1.2px;" />
        <path vector-effect="non-scaling-stroke" d="M38.564,15.888C33.301,12.694 26.699,12.694 21.436,15.888" style="fill:none;stroke:black;stroke-width:1.2px;" />
        <path vector-effect="non-scaling-stroke" d="M15.888,21.436C12.694,26.699 12.694,33.301 15.888,38.564" style="fill:none;stroke:black;stroke-width:1.2px;" />
        <path vector-effect="non-scaling-stroke" d="M44.112,38.564C47.306,33.301 47.306,26.699 44.112,21.436" style="fill:none;stroke:black;stroke-width:1.2px;" />

        <path vector-effect="non-scaling-stroke" d="M25.126,38.032C28.121,39.849 31.879,39.849 34.874,38.032" style="fill:none;stroke:black;stroke-width:1.2px;" />
        <path vector-effect="non-scaling-stroke" d="M34.874,21.968C31.879,20.151 28.121,20.151 25.126,21.968" style="fill:none;stroke:black;stroke-width:1.2px;" />
        <path vector-effect="non-scaling-stroke" d="M21.968,25.126C20.151,28.121 20.151,31.879 21.968,34.874" style="fill:none;stroke:black;stroke-width:1.2px;" />
        <path vector-effect="non-scaling-stroke" d="M38.032,34.874C39.849,31.879 39.849,28.121 38.032,25.126" style="fill:none;stroke:black;stroke-width:1.2px;" />
    </g>
</svg>